# xmcd CD database file
#
# Track frame offsets:
#	150
#	29200
#	51062
#	75392
#	100935
#	129905
#	148240
#	170012
#	194332
#	207762
#	222962
#	252387
#
# Disc length: 3717 seconds
#
# Revision: 0
# Processed by: cddbd v1.5.2PL0 Copyright (c) Steve Scherf et al.
# Submitted via: CDex 1.50
#
DISCID=b10e830c
DTITLE=Lisa Young Quartet - Grace
DYEAR=2006
DGENRE=Jazz
TTITLE0=Grace
TTITLE1='Cause I Weep
TTITLE2=Sa Ri Ga
TTITLE3=A Change Of Plea
TTITLE4=Freeflow
TTITLE5=If We Be
TTITLE6=Love After Love
TTITLE7=Drifting
TTITLE8=Mani's Samba
TTITLE9=Self-Portrait
TTITLE10=The Moon Has Made Other Plans
TTITLE11=Overflow
EXTD=YEAR: 2006
EXTT0=
EXTT1=
EXTT2=
EXTT3=
EXTT4=
EXTT5=
EXTT6=
EXTT7=
EXTT8=
EXTT9=
EXTT10=
EXTT11=
PLAYORDER=
